HIERARCHY
ROOT joint_0
{
	OFFSET 0.000000 0.000000 0.000000
	CHANNELS 6 Xposition Yposition Zposition Zrotation Yrotation Xrotation 
	JOINT joint_1
	{
		OFFSET 1.363060 -1.794630 0.839290
		CHANNELS 3 Zrotation Yrotation Xrotation
		JOINT joint_2
		{
			OFFSET 2.448110 -6.726130 0.000000
			CHANNELS 3 Zrotation Yrotation Xrotation
			JOINT joint_3
			{
				OFFSET 2.562200 -7.039590 0.000000
				CHANNELS 3 Zrotation Yrotation Xrotation
				JOINT joint_4
				{
					OFFSET 0.157640 -0.433110 2.322550
					CHANNELS 3 Zrotation Yrotation Xrotation
					End Site
					{
						OFFSET 0.000000 0.000000 0.000000
					}
				}
			}
		}
	}
	JOINT joint_5
	{
		OFFSET -1.305520 -1.794630 0.839290
		CHANNELS 3 Zrotation Yrotation Xrotation
		JOINT joint_6
		{
			OFFSET -2.542530 -6.985550 0.000000
			CHANNELS 3 Zrotation Yrotation Xrotation
			JOINT joint_7
			{
				OFFSET -2.568260 -7.056230 0.000000
				CHANNELS 3 Zrotation Yrotation Xrotation
				JOINT joint_8
				{
					OFFSET -0.164730 -0.452590 2.363150
					CHANNELS 3 Zrotation Yrotation Xrotation
					End Site
					{
						OFFSET 0.000000 0.000000 0.000000
					}
				}
			}
		}
	}
	JOINT joint_9
	{
		OFFSET 0.028270 2.035590 -0.193380
		CHANNELS 3 Zrotation Yrotation Xrotation
		JOINT joint_10
		{
			OFFSET 0.056720 2.048850 -0.042750
			CHANNELS 3 Zrotation Yrotation Xrotation
			JOINT joint_11
			{
				OFFSET -0.054170 1.746240 0.172020
				CHANNELS 3 Zrotation Yrotation Xrotation
				JOINT joint_12
				{
					OFFSET 0.104070 1.761360 -0.123970
					CHANNELS 3 Zrotation Yrotation Xrotation
					End Site
					{
						OFFSET 0.000000 0.000000 0.000000
					}
				}
			}
			JOINT joint_13
			{
				OFFSET 3.362410 1.200890 -0.311210
				CHANNELS 3 Zrotation Yrotation Xrotation
				JOINT joint_14
				{
					OFFSET 4.983000 -0.000000 -0.000000
					CHANNELS 3 Zrotation Yrotation Xrotation
					JOINT joint_15
					{
						OFFSET 3.483560 -0.000000 -0.000000
						CHANNELS 3 Zrotation Yrotation Xrotation
						JOINT joint_16
						{
							OFFSET 0.000000 0.000000 0.000000
							CHANNELS 3 Zrotation Yrotation Xrotation
							End Site
							{
								OFFSET 0.000000 0.000000 0.000000
							}
						}
					}
				}
			}
			JOINT joint_17
			{
				OFFSET -3.136600 1.374050 -0.404650
				CHANNELS 3 Zrotation Yrotation Xrotation
				JOINT joint_18
				{
					OFFSET -5.241900 -0.000000 -0.000000
					CHANNELS 3 Zrotation Yrotation Xrotation
					JOINT joint_19
					{
						OFFSET -3.444170 -0.000000 -0.000000
						CHANNELS 3 Zrotation Yrotation Xrotation
						JOINT joint_20
						{
							OFFSET 0.000000 0.000000 0.000000
							CHANNELS 3 Zrotation Yrotation Xrotation
							End Site
							{
								OFFSET 0.000000 0.000000 0.000000
							}
						}
					}
				}
			}
		}
	}
}
MOTION
Frames: 15
Frame Time: 0.031667
0.383414 16.863363 -1.810240 -1.405944 0.763194 0.967095 -17.851480 2.044090 -3.147101 -1.107823 2.998830 9.089281 -0.365254 2.570487 -1.318686 0.265002 -1.011507 -2.743838 24.024154 -0.550213 0.194206 -0.188339 -3.563196 9.096055 0.214116 -2.271466 -5.643476 -0.130514 0.850014 -2.082913 1.770207 0.345478 -8.988807 0.620552 -0.420010 4.374008 2.941442 -0.645802 18.016172 1.884379 -0.271211 9.616038 -22.838265 -5.480488 4.469256 19.042678 -21.620020 -11.346504 2.329382 -1.950297 1.499034 -7.147196 -0.119731 0.115696 20.695512 3.261430 0.601400 -28.056350 28.189449 -21.502541 0.523565 -0.607065 1.893707 7.176817 -0.124187 0.127232 
0.383318 16.859610 -1.817252 -1.379972 0.747692 0.969901 -17.837572 3.358323 -1.363910 -0.966042 1.669659 6.425433 -0.362509 1.653798 -1.400451 0.115247 -0.845811 -2.077982 25.126435 -2.355818 2.616806 -0.126758 -2.367009 6.229969 0.387361 -0.781040 -5.465945 0.094070 1.048794 -2.676728 1.890181 0.086809 -10.183620 0.904143 -0.315937 5.766462 2.282628 -0.431559 19.374673 1.998352 -0.349300 9.781936 -22.069756 -3.066046 5.531204 18.497597 -20.390719 -11.994895 2.780198 -2.130807 0.787652 -7.121165 -0.161234 0.153128 18.516801 1.810764 1.342532 -29.914136 28.211284 -24.476506 0.677314 -0.866042 0.746301 7.223194 -0.155637 0.160521 
0.359751 16.856756 -1.922252 -1.278687 2.231196 1.264987 -18.214866 4.351958 -0.783184 -0.523783 1.053749 4.735338 -0.060012 0.977242 -1.418604 0.041492 -0.946452 -2.176718 26.160518 -3.253036 3.487700 -0.581552 -1.737773 4.351061 0.167423 0.258887 -5.533969 0.320720 0.970315 -2.477747 2.200357 0.106410 -10.802658 1.091907 -0.386606 7.431753 2.095262 -0.473494 20.368599 2.297120 -0.446896 9.871281 -19.730474 -3.444890 4.804569 18.511789 -19.506179 -12.565665 3.209007 -2.278458 0.465380 -7.093141 -0.203603 0.190718 16.873338 2.534334 0.789584 -30.889850 27.716812 -26.191116 0.441046 -0.953435 0.321150 7.263697 -0.196421 0.198783 
0.356616 16.846096 -1.948889 -0.875224 1.924792 0.723241 -18.349647 4.427220 -0.383290 -0.441256 0.608058 3.696445 -0.039179 0.885350 -1.360578 0.085890 -1.088189 -2.283916 26.978235 -3.479236 3.785638 -0.766126 -1.403317 3.333604 0.317254 0.374360 -5.577024 0.496844 0.619007 -1.548101 2.205293 0.192189 -11.291987 1.092220 -0.335542 8.633823 1.859107 -0.548280 21.113601 2.638523 -0.512847 9.717719 -18.650461 -2.712536 4.560010 18.800388 -18.384733 -13.294719 3.729407 -2.417766 0.836120 -7.046177 -0.264086 0.248275 16.120592 2.081218 0.644325 -31.035497 26.441696 -27.365188 0.599022 -1.144630 0.878419 7.327826 -0.263215 0.261555 
0.352688 16.855104 -1.909324 -1.206381 1.764283 0.913657 -18.624404 4.276693 -0.566045 -0.219961 0.390258 3.215540 0.038755 0.935422 -0.887215 0.153295 -1.222265 -2.376273 27.649271 -3.769049 3.508281 -1.047768 -1.389918 2.900856 0.397338 -0.018980 -5.440910 0.594012 0.269834 -0.645128 2.270074 0.478274 -11.675873 1.259197 -0.347828 9.616935 1.830765 -0.416037 21.356410 3.063565 -0.534266 9.360609 -18.280508 -2.332541 4.737958 18.892495 -17.325163 -13.797275 4.239285 -2.673191 0.836409 -6.997480 -0.330394 0.308856 15.855759 1.498482 0.879293 -31.098506 24.768535 -28.300579 0.720851 -1.389724 1.432072 7.390704 -0.327867 0.324853 
0.353326 16.855556 -1.907733 -1.240121 1.724975 0.923689 -18.809997 4.005976 -0.621150 0.150124 0.338764 2.868875 0.089126 0.999328 -0.885484 0.175199 -1.244684 -2.282210 28.326392 -3.758228 3.348909 -1.134657 -1.445671 2.677157 0.308169 0.020989 -5.653624 0.650861 0.078036 -0.145254 2.208351 0.588143 -11.880976 1.464427 -0.342104 10.518901 1.660512 -0.343770 21.614463 3.430213 -0.524190 8.992378 -18.013739 -2.217118 4.704937 19.145415 -16.195158 -14.493569 4.716636 -2.879326 0.891529 -6.972757 -0.375257 0.346564 16.069402 1.067939 1.120393 -31.015776 23.441971 -28.655831 0.716810 -1.590884 2.202703 7.427088 -0.362385 0.361094 
0.353497 16.856457 -1.906577 -1.280150 1.729442 0.936999 -19.335365 4.191791 -0.564823 0.351957 0.064693 2.630522 0.135937 0.403263 -1.067123 0.174762 -1.060935 -1.560076 29.279118 -4.052630 3.688540 -1.099419 -1.453981 2.619234 0.314561 0.474494 -5.837382 0.763441 -0.006430 -0.001490 2.170446 0.826217 -12.143370 1.462813 -0.212770 11.417180 1.481578 -0.291162 22.147122 3.755946 -0.521920 8.966064 -17.919439 -2.213740 4.619438 19.210875 -15.030067 -14.831854 5.364053 -2.953466 1.183303 -6.923941 -0.436868 0.401615 16.252983 0.977838 1.315141 -31.015233 22.320890 -28.787439 0.715886 -1.841871 2.759885 7.475811 -0.425608 0.420579 
0.354524 16.854355 -1.908769 -1.262170 1.675628 0.897137 -19.080113 3.727025 -0.913527 0.454374 -0.000149 2.803500 0.065369 0.249841 -1.131423 0.184112 -1.024419 -1.477949 29.159251 -4.018924 3.131329 -1.171934 -1.654148 2.749616 0.370654 0.413785 -6.076038 0.847976 -0.025881 0.023839 2.065941 0.894812 -11.744853 1.511034 0.056760 11.531959 1.302940 -0.389474 22.029233 4.103968 -0.571034 8.563184 -18.162516 -2.038080 4.731588 19.382523 -14.812073 -14.808226 5.560517 -3.082896 1.248146 -6.920818 -0.423965 0.386780 16.034473 0.673073 1.302494 -31.198240 22.182681 -28.429501 0.782972 -1.784605 3.093433 7.465644 -0.411192 0.403416 
0.355215 16.853754 -1.910480 -1.258266 1.650171 0.888190 -18.713050 3.093562 -1.036436 0.769972 -0.037642 3.008582 0.045576 0.194323 -1.063627 0.250018 -1.187608 -1.891241 28.871814 -3.739244 2.562322 -1.572615 -1.591913 2.478123 0.409262 0.173711 -6.341078 0.847296 -0.141107 0.301895 1.972192 0.883236 -11.185554 1.796689 0.090021 11.708486 1.170720 -0.474072 21.406673 4.373593 -0.671558 7.979236 -18.812736 -1.678041 4.969982 19.868446 -14.721709 -15.065004 5.761218 -3.267756 1.169066 -6.916750 -0.407018 0.371886 15.982641 0.561714 1.310728 -32.010594 22.186019 -28.790802 0.936201 -1.717531 3.434930 7.461459 -0.391758 0.383646 
0.354847 16.854204 -1.912898 -1.277922 1.673580 0.855423 -18.421865 2.547354 -1.413386 1.172476 -0.077367 3.208725 0.015432 0.266898 -1.066586 0.303403 -1.373197 -2.318075 28.523485 -3.524106 2.045777 -1.937185 -1.327194 2.191732 0.575511 0.062833 -6.344974 0.826585 -0.214249 0.462097 1.882442 0.942471 -10.697214 1.903368 0.118325 11.771621 1.008849 -0.695082 21.176908 4.583680 -0.838960 7.598608 -19.714134 -1.332059 5.453042 20.340970 -14.766396 -15.295811 5.928245 -3.404081 1.168947 -6.911926 -0.404237 0.368465 16.695374 0.747717 1.736882 -32.529588 22.318807 -28.969457 0.930616 -1.661771 3.605633 7.469186 -0.387333 0.378401 
0.355467 16.859909 -1.895105 -1.494062 1.709578 1.028775 -18.390861 2.268375 -1.708728 1.214971 -0.101844 3.230959 -0.040736 0.085423 -1.226096 0.307539 -1.455565 -2.579546 28.348866 -3.504882 1.721895 -1.934752 -1.200591 1.946105 0.603813 0.053687 -6.358735 0.816865 -0.113891 0.200800 1.555821 1.069530 -10.574499 1.958727 0.220998 11.818853 0.681742 -0.763629 21.218000 4.601744 -0.904698 7.312466 -20.591118 -1.159194 5.674087 20.455528 -14.499482 -15.401085 6.017000 -3.432713 1.430645 -6.920319 -0.394181 0.355943 17.474220 0.968928 2.358314 -33.040361 22.399830 -29.232041 0.893850 -1.637782 3.478360 7.457232 -0.377924 0.367397 
0.355698 16.858559 -1.896486 -1.490068 1.658553 0.979278 -18.405642 2.228502 -1.804550 1.247956 -0.112517 3.258343 -0.000441 -0.222407 -1.355249 0.310829 -1.426259 -2.452841 28.456476 -3.606986 1.783748 -1.924230 -1.181730 1.983828 0.603494 -0.069109 -6.428837 0.829550 -0.050215 0.020477 1.432033 1.003004 -10.474250 2.044061 0.196940 11.833732 0.495256 -0.846447 21.313715 4.608080 -0.925916 7.151651 -20.884484 -1.345220 5.903883 20.368923 -14.377753 -15.497431 6.063910 -3.411899 1.459473 -6.917400 -0.396883 0.355722 17.988007 1.233372 2.854376 -33.182534 22.360880 -29.435643 0.872440 -1.639537 3.180948 7.462605 -0.377367 0.366489 
0.356209 16.859009 -1.897598 -1.467705 1.612175 0.967268 -18.620167 2.071833 -1.803731 1.204676 -0.100853 3.214249 -0.007540 -0.524332 -1.455998 0.305953 -1.380054 -2.317900 28.855597 -3.797418 2.147639 -1.911773 -1.244242 2.072387 0.598380 -0.210419 -6.528947 0.844140 -0.036625 -0.018552 1.201269 0.986515 -10.379928 2.066246 0.225838 11.901427 0.351144 -1.061590 21.631520 4.518944 -1.023005 7.154549 -21.140655 -1.331723 5.982767 20.377495 -14.324083 -15.504402 6.084485 -3.334731 1.600781 -6.917417 -0.401806 0.358664 18.575547 1.329796 3.330863 -33.332027 22.358527 -29.472063 0.832838 -1.709871 2.972675 7.466605 -0.380487 0.369341 
0.356011 16.859159 -1.899114 -1.498228 1.643050 0.943425 -18.799931 1.894895 -2.010810 1.114887 -0.086597 3.132055 -0.007941 -0.591377 -1.494211 0.307470 -1.390447 -2.353019 28.945554 -3.685188 2.003994 -1.872931 -1.350354 2.216554 0.604192 -0.446385 -6.517558 0.836381 -0.089412 0.127376 1.195602 0.971698 -10.456275 2.109553 0.274522 11.969882 0.164984 -1.201827 21.591222 4.465491 -1.056615 7.130269 -20.970026 -1.282406 6.129012 20.554950 -14.494353 -15.657833 6.069642 -3.227935 1.409660 -6.919204 -0.399945 0.356724 18.615299 1.511416 3.243602 -33.541147 22.356636 -29.619903 0.822745 -1.718636 2.572052 7.464424 -0.378518 0.367429 
0.357096 16.857958 -1.897973 -1.507732 1.614423 0.943045 -19.036199 1.891069 -2.196948 1.046638 -0.025970 3.097874 -0.020773 -0.732473 -1.481752 0.301699 -1.383113 -2.360006 28.798548 -3.604188 1.740332 -1.851261 -1.506571 2.465065 0.581034 -0.584091 -6.527657 0.821013 -0.194774 0.426853 1.148517 0.964706 -10.584148 2.185954 0.287489 12.057102 0.139891 -1.428110 21.570332 4.435514 -1.131826 7.047148 -20.690221 -1.316256 6.310593 20.638290 -14.617809 -15.738888 6.096719 -3.160466 1.284045 -6.924272 -0.394091 0.350989 18.545803 1.694233 2.954034 -33.640966 22.302378 -29.750124 0.814417 -1.780237 2.255538 7.456879 -0.372671 0.361741 
